<svg width="24" height="20" viewBox="0 0 24 20" fill="none" xmlns="http://www.w3.org/2000/svg">
<path d="M19.1111 11.3335L20 19.3335H4L4.88889 11.3335" stroke="currentColor" stroke-linecap="round" stroke-linejoin="round"/>
<path d="M16.5118 11.0247L16.6264 10.5381C16.4702 10.5013 16.3059 10.5417 16.1846 10.6466L16.5118 11.0247ZM7.48816 11.0247L7.81533 10.6466C7.69402 10.5417 7.52971 10.5013 7.37356 10.5381L7.48816 11.0247ZM7.48816 2.30876L7.37356 2.79544C7.52971 2.83221 7.69402 2.79183 7.81533 2.68686L7.48816 2.30876ZM16.5118 2.30876L16.1846 2.68686C16.3059 2.79183 16.4702 2.83221 16.6264 2.79544L16.5118 2.30876ZM16.1846 10.6466C15.0998 11.5854 13.628 12.1667 12 12.1667V13.1667C13.867 13.1667 15.5714 12.4997 16.839 11.4028L16.1846 10.6466ZM12 12.1667C10.3719 12.1667 8.9002 11.5854 7.81533 10.6466L7.16099 11.4028C8.4286 12.4997 10.1329 13.1667 12 13.1667V12.1667ZM6.25639 11.6667C6.72045 11.6667 7.17164 11.6129 7.60276 11.5114L7.37356 10.5381C7.01732 10.6219 6.64303 10.6667 6.25639 10.6667V11.6667ZM0.833313 6.66675C0.833313 9.46951 3.30454 11.6667 6.25639 11.6667V10.6667C3.77036 10.6667 1.83331 8.83455 1.83331 6.66675H0.833313ZM6.25639 1.66675C3.30454 1.66675 0.833313 3.86399 0.833313 6.66675H1.83331C1.83331 4.49895 3.77036 2.66675 6.25639 2.66675V1.66675ZM7.60276 1.82207C7.17164 1.72055 6.72045 1.66675 6.25639 1.66675V2.66675C6.64303 2.66675 7.01732 2.71156 7.37356 2.79544L7.60276 1.82207ZM7.81533 2.68686C8.9002 1.74812 10.3719 1.16675 12 1.16675V0.166748C10.1329 0.166748 8.4286 0.833794 7.16099 1.93065L7.81533 2.68686ZM12 1.16675C13.628 1.16675 15.0998 1.74812 16.1846 2.68686L16.839 1.93065C15.5714 0.833794 13.867 0.166748 12 0.166748V1.16675ZM17.7436 1.66675C17.2795 1.66675 16.8283 1.72055 16.3972 1.82207L16.6264 2.79544C16.9826 2.71156 17.3569 2.66675 17.7436 2.66675V1.66675ZM23.1666 6.66675C23.1666 3.86399 20.6954 1.66675 17.7436 1.66675V2.66675C20.2296 2.66675 22.1666 4.49895 22.1666 6.66675H23.1666ZM17.7436 11.6667C20.6954 11.6667 23.1666 9.46951 23.1666 6.66675H22.1666C22.1666 8.83455 20.2296 10.6667 17.7436 10.6667V11.6667ZM16.3972 11.5114C16.8283 11.6129 17.2795 11.6667 17.7436 11.6667V10.6667C17.3569 10.6667 16.9826 10.6219 16.6264 10.5381L16.3972 11.5114Z" fill="currentColor"/>
</svg>
