<svg width="24" height="24" viewBox="0 0 24 24" fill="none" xmlns="http://www.w3.org/2000/svg">
<path d="M17.3333 13L18 19H6L6.66667 13" stroke="#363837" stroke-linecap="round" stroke-linejoin="round"/>
<path d="M15.3839 12.7685L15.4985 12.2818C15.3423 12.245 15.178 12.2854 15.0567 12.3904L15.3839 12.7685ZM8.61614 12.7685L8.94331 12.3904C8.822 12.2854 8.65769 12.245 8.50154 12.2818L8.61614 12.7685ZM8.61614 6.2315L8.50154 6.71819C8.65769 6.75496 8.822 6.71457 8.94331 6.60961L8.61614 6.2315ZM15.3839 6.23151L15.0567 6.60961C15.178 6.71458 15.3423 6.75496 15.4985 6.71819L15.3839 6.23151ZM15.0567 12.3904C14.2659 13.0747 13.1912 13.5 12 13.5V14.5C13.4301 14.5 14.7375 13.989 15.711 13.1466L15.0567 12.3904ZM12 13.5C10.8088 13.5 9.73412 13.0747 8.94331 12.3904L8.28897 13.1466C9.26252 13.989 10.5699 14.5 12 14.5V13.5ZM7.69231 13.375C8.05003 13.375 8.39804 13.3335 8.73074 13.2552L8.50154 12.2818C8.24371 12.3425 7.97261 12.375 7.69231 12.375V13.375ZM3.5 9.5C3.5 11.6814 5.4202 13.375 7.69231 13.375V12.375C5.88601 12.375 4.5 11.0465 4.5 9.5H3.5ZM7.69231 5.625C5.4202 5.625 3.5 7.31856 3.5 9.5H4.5C4.5 7.95352 5.88601 6.625 7.69231 6.625V5.625ZM8.73074 5.74481C8.39804 5.66647 8.05003 5.625 7.69231 5.625V6.625C7.97261 6.625 8.24371 6.65748 8.50154 6.71819L8.73074 5.74481ZM8.94331 6.60961C9.73412 5.92532 10.8088 5.5 12 5.5V4.5C10.5699 4.5 9.26252 5.01099 8.28897 5.8534L8.94331 6.60961ZM12 5.5C13.1912 5.5 14.2659 5.92532 15.0567 6.60961L15.711 5.8534C14.7375 5.01099 13.4301 4.5 12 4.5V5.5ZM16.3077 5.625C15.95 5.625 15.602 5.66647 15.2693 5.74482L15.4985 6.71819C15.7563 6.65748 16.0274 6.625 16.3077 6.625V5.625ZM20.5 9.5C20.5 7.31856 18.5798 5.625 16.3077 5.625V6.625C18.114 6.625 19.5 7.95352 19.5 9.5H20.5ZM16.3077 13.375C18.5798 13.375 20.5 11.6814 20.5 9.5H19.5C19.5 11.0465 18.114 12.375 16.3077 12.375V13.375ZM15.2693 13.2552C15.602 13.3335 15.95 13.375 16.3077 13.375V12.375C16.0274 12.375 15.7563 12.3425 15.4985 12.2818L15.2693 13.2552Z" fill="#363837"/>
</svg>
